HIERARCHY
ROOT hip
{
  OFFSET -20.3985 86.9407 26.3306
  CHANNELS 6 Xposition Yposition Zposition Zrotation Xrotation Yrotation
  JOINT abdomen
  {
    OFFSET 0 20.6881 -0.73152
    CHANNELS 3 Zrotation Xrotation Yrotation
    JOINT chest
    {
      OFFSET 0 11.7043 -0.48768
      CHANNELS 3 Zrotation Xrotation Yrotation
      JOINT neck
      {
        OFFSET 0 22.1894 -2.19456
        CHANNELS 3 Zrotation Xrotation Yrotation
        JOINT head
        {
          OFFSET -0.24384 7.07133 1.2192
          CHANNELS 3 Zrotation Xrotation Yrotation
          JOINT leftEye
          {
            OFFSET 4.14528 8.04674 8.04672
            CHANNELS 3 Zrotation Xrotation Yrotation
            End Site
            {
              OFFSET 1 0 0
            }
          }
          JOINT rightEye
          {
            OFFSET -3.6576 8.04674 8.04672
            CHANNELS 3 Zrotation Xrotation Yrotation
            End Site
            {
              OFFSET 1 0 0
            }
          }
        }
      }
      JOINT rCollar
      {
        OFFSET -2.68224 19.2634 -4.8768
        CHANNELS 3 Zrotation Xrotation Yrotation
        JOINT rShldr
        {
          OFFSET -8.77824 -1.95073 1.46304
          CHANNELS 3 Zrotation Xrotation Yrotation
          JOINT rForeArm
          {
            OFFSET -28.1742 -1.7115 0.48768
            CHANNELS 3 Zrotation Xrotation Yrotation
            JOINT rHand
            {
              OFFSET -22.5879 0.773209 7.07136
              CHANNELS 3 Zrotation Xrotation Yrotation
              JOINT rThumb1
              {
                OFFSET -1.2192 -0.487915 3.41376
                CHANNELS 3 Zrotation Xrotation Yrotation
                JOINT rThumb2
                {
                  OFFSET -3.37035 -0.52449 3.41376
                  CHANNELS 3 Zrotation Xrotation Yrotation
                  End Site
                  {
                    OFFSET -1.78271 -1.18214 1.43049
                  }
                }
              }
              JOINT rIndex1
              {
                OFFSET -7.75947 0.938293 5.60832
                CHANNELS 3 Zrotation Xrotation Yrotation
                JOINT rIndex2
                {
                  OFFSET -2.54057 -0.884171 1.56538
                  CHANNELS 3 Zrotation Xrotation Yrotation
                  End Site
                  {
                    OFFSET -1.62519 -0.234802 1.16502
                  }
                }
              }
              JOINT rMid1
              {
                OFFSET -8.24714 1.18213 3.41376
                CHANNELS 3 Zrotation Xrotation Yrotation
                JOINT rMid2
                {
                  OFFSET -3.10165 -0.590103 1.0647
                  CHANNELS 3 Zrotation Xrotation Yrotation
                  End Site
                  {
                    OFFSET -2.48547 -0.328903 0.83742
                  }
                }
              }
              JOINT rRing1
              {
                OFFSET -8.82822 0.546677 1.51678
                CHANNELS 3 Zrotation Xrotation Yrotation
                JOINT rRing2
                {
                  OFFSET -2.60934 -0.819778 -0.0198488
                  CHANNELS 3 Zrotation Xrotation Yrotation
                  End Site
                  {
                    OFFSET -2.33842 -0.294052 0.168128
                  }
                }
              }
              JOINT rPinky1
              {
                OFFSET -8.27202 -0.0477905 -0.4584
                CHANNELS 3 Zrotation Xrotation Yrotation
                JOINT rPinky2
                {
                  OFFSET -1.82734 -0.647385 -0.700984
                  CHANNELS 3 Zrotation Xrotation Yrotation
                  End Site
                  {
                    OFFSET -1.69225 -0.51767 -0.607171
                  }
                }
              }
            }
          }
        }
      }
      JOINT lCollar
      {
        OFFSET 2.68224 19.2634 -4.8768
        CHANNELS 3 Zrotation Xrotation Yrotation
        JOINT lShldr
        {
          OFFSET 8.77824 -1.95073 1.46304
          CHANNELS 3 Zrotation Xrotation Yrotation
          JOINT lForeArm
          {
            OFFSET 28.1742 -1.7115 0.48768
            CHANNELS 3 Zrotation Xrotation Yrotation
            JOINT lHand
            {
              OFFSET 22.5879 0.773209 7.07136
              CHANNELS 3 Zrotation Xrotation Yrotation
              JOINT lThumb1
              {
                OFFSET 1.2192 -0.487915 3.41376
                CHANNELS 3 Zrotation Xrotation Yrotation
                JOINT lThumb2
                {
                  OFFSET 3.37035 -0.52449 3.41376
                  CHANNELS 3 Zrotation Xrotation Yrotation
                  End Site
                  {
                    OFFSET 1.78271 -1.18214 1.43049
                  }
                }
              }
              JOINT lIndex1
              {
                OFFSET 7.75947 0.938293 5.60832
                CHANNELS 3 Zrotation Xrotation Yrotation
                JOINT lIndex2
                {
                  OFFSET 2.54057 -0.884171 1.56538
                  CHANNELS 3 Zrotation Xrotation Yrotation
                  End Site
                  {
                    OFFSET 1.62519 -0.234802 1.16502
                  }
                }
              }
              JOINT lMid1
              {
                OFFSET 8.24714 1.18213 3.41376
                CHANNELS 3 Zrotation Xrotation Yrotation
                JOINT lMid2
                {
                  OFFSET 3.10165 -0.590103 1.0647
                  CHANNELS 3 Zrotation Xrotation Yrotation
                  End Site
                  {
                    OFFSET 2.48547 -0.328903 0.83742
                  }
                }
              }
              JOINT lRing1
              {
                OFFSET 8.82822 0.546677 1.51678
                CHANNELS 3 Zrotation Xrotation Yrotation
                JOINT lRing2
                {
                  OFFSET 2.60934 -0.819778 -0.0198488
                  CHANNELS 3 Zrotation Xrotation Yrotation
                  End Site
                  {
                    OFFSET 2.33842 -0.294052 0.168128
                  }
                }
              }
              JOINT lPinky1
              {
                OFFSET 8.27202 -0.0477905 -0.4584
                CHANNELS 3 Zrotation Xrotation Yrotation
                JOINT lPinky2
                {
                  OFFSET 1.82734 -0.647385 -0.700984
                  CHANNELS 3 Zrotation Xrotation Yrotation
                  End Site
                  {
                    OFFSET 1.69225 -0.51767 -0.607171
                  }
                }
              }
            }
          }
        }
      }
    }
  }
  JOINT rButtock
  {
    OFFSET -8.77824 4.35084 1.2192
    CHANNELS 3 Zrotation Xrotation Yrotation
    JOINT rThigh
    {
      OFFSET 0 -1.70687 -2.19456
      CHANNELS 3 Zrotation Xrotation Yrotation
      JOINT rShin
      {
        OFFSET 0 -36.8199 0.73152
        CHANNELS 3 Zrotation Xrotation Yrotation
        JOINT rFoot
        {
          OFFSET 0.73152 -45.1104 -5.12064
          CHANNELS 3 Zrotation Xrotation Yrotation
          End Site
          {
            OFFSET -1.1221 -3.69964 12.103
          }
        }
      }
    }
  }
  JOINT lButtock
  {
    OFFSET 8.77824 4.35084 1.2192
    CHANNELS 3 Zrotation Xrotation Yrotation
    JOINT lThigh
    {
      OFFSET 0 -1.70687 -2.19456
      CHANNELS 3 Zrotation Xrotation Yrotation
      JOINT lShin
      {
        OFFSET 0 -36.8199 0.73152
        CHANNELS 3 Zrotation Xrotation Yrotation
        JOINT lFoot
        {
          OFFSET -0.73152 -45.1104 -5.12064
          CHANNELS 3 Zrotation Xrotation Yrotation
          End Site
          {
            OFFSET 1.1221 -3.69964 12.103
          }
        }
      }
    }
  }
}
MOTION
Frames:	6
Frame Time:	0.00833333
-11.5855 84.5663 29.911 -16.0218 3.38503 102.778 3.36524 29.739 1.21737 -3.69522 -4.30594 -0.0869316 0.480726 18.7211 2.08172 -9.41432 -49.6699 -0.405943 -0 0 0 -0 0 0 3.53318e-013 -3.28632e-012 -1.20816e-013 58.4871 -14.01 -21.8321 -27.6019 -28.6174 65.0608 -11.4153 -65.251 -17.7489 -8.85854e-010 1.61569e-009 3.26423e-010 -1.53489e-009 2.99924e-009 5.15613e-010 -8.85854e-010 1.6157e-009 3.26405e-010 7.73091 5.47488 0.417314 -8.85852e-010 1.61568e-009 3.26422e-010 2.90554 0.965183 0.102902 -8.85844e-010 1.61568e-009 3.26418e-010 10.2786 0.731801 0.0259123 -8.85857e-010 1.6157e-009 3.26413e-010 2.22167 -0.733487 -0.20892 3.53241e-013 -3.28633e-012 -1.2103e-013 -56.5016 -31.2586 50.8176 6.06233 -2.02025 -10.6732 3.71807 47.009 -8.59513 -2.33445e-009 -3.76656e-010 -9.58977e-010 -4.05806e-009 -6.12658e-010 -1.57256e-009 -2.33446e-009 -3.76658e-010 -9.58976e-010 -7.73091 5.47488 -0.417314 -2.33445e-009 -3.76659e-010 -9.58972e-010 -2.90554 0.965183 -0.102902 -2.33445e-009 -3.76657e-010 -9.58972e-010 -10.2786 0.731801 -0.0259123 -2.33445e-009 -3.76654e-010 -9.58971e-010 -2.22167 -0.733487 0.20892 -2.03217e-016 0 -3.88251e-019 2.10329 -33.9377 13.8385 -149.788 87.7423 150.099 -2.88187 -7.59717 -6.56548 2.03217e-016 0 3.88251e-019 0.0305026 -42.5448 -1.22326 0.415754 40.7093 -0.152334 0.7624 -8.86844 1.87558 
-11.6298 84.7644 29.831 -17.1258 4.32701 102.371 5.18438 28.8944 1.1513 -3.83706 -4.22429 0.0386311 0.596694 18.5022 2.22231 -10.2873 -49.346 -0.477615 -0 0 0 -0 0 0 3.18795e-013 -2.78747e-012 -1.99974e-013 57.9288 -14.2621 -22.609 -27.5491 -28.3903 64.6988 -11.918 -65.8914 -18.3013 -1.34877e-009 5.71143e-009 -2.64429e-010 -2.29782e-009 9.99538e-009 -5.21373e-010 -1.34877e-009 5.71143e-009 -2.64444e-010 7.73091 5.47488 0.417314 -1.34877e-009 5.71142e-009 -2.64431e-010 2.90554 0.965183 0.102902 -1.34876e-009 5.71142e-009 -2.64432e-010 10.2786 0.731801 0.0259123 -1.34877e-009 5.71144e-009 -2.64437e-010 2.22167 -0.733487 -0.20892 3.18843e-013 -2.78748e-012 -2.00126e-013 -46.1542 -36.4308 58.7931 5.73726 -1.8802 -10.0868 5.71613 54.5577 -11.217 -1.95892e-009 -2.92917e-010 -8.24164e-010 -3.40605e-009 -5.40128e-010 -1.34642e-009 -1.95892e-009 -2.92916e-010 -8.24156e-010 -7.73091 5.47488 -0.417314 -1.95892e-009 -2.92919e-010 -8.24158e-010 -2.90554 0.965183 -0.102902 -1.95892e-009 -2.92917e-010 -8.24156e-010 -10.2786 0.731801 -0.0259123 -1.95891e-009 -2.92916e-010 -8.24155e-010 -2.22167 -0.733487 0.20892 -2.03217e-016 0 -3.88251e-019 1.88006 -28.8726 13.6038 -9.14526 83.8221 9.57504 -4.17106 -8.77052 -10.0532 2.03217e-016 0 3.88251e-019 0.293494 -43.3669 -2.83257 0.415177 40.7496 -0.204721 1.00781 -8.98931 2.51754 
-11.6786 84.7707 29.734 -18.1709 5.18635 101.976 6.86411 28.0007 1.07514 -3.95609 -4.17926 0.152347 0.740618 18.2999 2.40153 -11.0278 -49.0787 -0.40811 -0 0 0 -0 0 0 2.64616e-013 -2.05751e-012 -2.82464e-013 57.4161 -14.4095 -23.3937 -27.5145 -28.2426 64.4565 -12.4125 -66.4847 -18.8416 -1.82159e-009 9.91023e-009 -8.78251e-010 -3.07699e-009 1.717e-008 -1.59835e-009 -1.82159e-009 9.91023e-009 -8.7826e-010 7.73091 5.47488 0.417314 -1.82159e-009 9.91023e-009 -8.78253e-010 2.90554 0.965183 0.102902 -1.82159e-009 9.91023e-009 -8.7825e-010 10.2786 0.731801 0.0259123 -1.8216e-009 9.91024e-009 -8.78256e-010 2.22167 -0.733487 -0.20892 2.64783e-013 -2.05752e-012 -2.82553e-013 -34.8813 -39.6989 67.6079 5.63825 -1.86739 -9.8657 8.56369 61.1142 -14.5916 -1.52548e-009 -2.57006e-010 -7.03822e-010 -2.65311e-009 -5.51032e-010 -1.1495e-009 -1.52548e-009 -2.57003e-010 -7.03807e-010 -7.73091 5.47488 -0.417314 -1.52548e-009 -2.57006e-010 -7.03815e-010 -2.90554 0.965183 -0.102902 -1.52548e-009 -2.57006e-010 -7.03811e-010 -10.2786 0.731801 -0.0259123 -1.52548e-009 -2.57005e-010 -7.03812e-010 -2.22167 -0.733487 0.20892 -2.03217e-016 0 -3.88251e-019 1.80294 -24.0746 13.6572 -3.22517 75.5346 3.76686 -5.41469 -9.92691 -13.1482 2.03217e-016 0 3.88251e-019 0.46627 -44.2698 -4.3898 0.416741 41.0191 -0.276021 1.26525 -9.23169 3.13479 
-11.7489 84.6065 29.6378 -19.0247 5.80659 101.699 8.09761 27.1698 1.10955 -4.02651 -4.18101 0.262837 0.887447 18.2284 2.61038 -11.5522 -48.9781 -0.188582 -0 0 0 -0 0 0 1.95098e-013 -1.17228e-012 -3.24367e-013 57.0798 -14.5671 -24.1234 -27.5046 -28.1996 64.3819 -12.7916 -66.9167 -19.2542 -2.06657e-009 1.22334e-008 -1.22713e-009 -3.47932e-009 2.11371e-008 -2.20979e-009 -2.06656e-009 1.22334e-008 -1.22713e-009 7.73091 5.47488 0.417314 -2.06657e-009 1.22334e-008 -1.22713e-009 2.90554 0.965183 0.102902 -2.06656e-009 1.22334e-008 -1.22713e-009 10.2786 0.731801 0.0259123 -2.06658e-009 1.22334e-008 -1.22713e-009 2.22167 -0.733487 -0.20892 1.95328e-013 -1.17228e-012 -3.24417e-013 -24.9766 -40.8904 75.2142 5.57084 -1.85577 -9.71948 11.6595 65.564 -18.0173 -1.14257e-009 -1.9002e-010 -5.58343e-010 -1.98708e-009 -4.81717e-010 -9.10353e-010 -1.14257e-009 -1.90015e-010 -5.58324e-010 -7.73091 5.47488 -0.417314 -1.14257e-009 -1.90019e-010 -5.58337e-010 -2.90554 0.965183 -0.102902 -1.14257e-009 -1.90018e-010 -5.58331e-010 -10.2786 0.731801 -0.0259123 -1.14256e-009 -1.90019e-010 -5.58334e-010 -2.22167 -0.733487 0.20892 -2.03217e-016 0 -3.88251e-019 1.62807 -19.8162 13.9912 -1.67501 67.5719 2.30507 -6.21548 -11.0945 -14.7768 2.03217e-016 0 3.88251e-019 0.625071 -45.1067 -5.46862 0.418586 41.4059 -0.350923 1.4683 -9.55229 3.52466 
-11.7845 84.2789 29.5315 -19.7137 6.18493 101.574 8.87212 26.3167 1.26582 -4.05088 -4.23157 0.370733 1.04949 18.3327 2.85832 -11.786 -49.1128 0.229387 -0 0 0 -0 0 0 8.77844e-014 1.23755e-013 -2.97825e-013 56.9262 -14.7746 -24.8902 -27.5288 -28.299 64.5362 -13.05 -67.2003 -19.5344 -1.90437e-009 1.14195e-008 -1.14845e-009 -3.20558e-009 1.97317e-008 -2.06828e-009 -1.90436e-009 1.14195e-008 -1.14846e-009 7.73091 5.47488 0.417314 -1.90437e-009 1.14195e-008 -1.14846e-009 2.90554 0.965183 0.102902 -1.90436e-009 1.14195e-008 -1.14845e-009 10.2786 0.731801 0.0259123 -1.90438e-009 1.14196e-008 -1.14846e-009 2.22167 -0.733487 -0.20892 8.79967e-014 1.23753e-013 -2.9787e-013 -17.6412 -40.7355 80.5975 5.54189 -1.84189 -9.66957 13.341 67.3236 -19.813 -7.43978e-010 -1.24881e-011 -3.30523e-010 -1.29239e-009 -1.8464e-010 -5.35187e-010 -7.43978e-010 -1.24833e-011 -3.30505e-010 -7.73091 5.47488 -0.417314 -7.43976e-010 -1.24853e-011 -3.30519e-010 -2.90554 0.965183 -0.102902 -7.43979e-010 -1.24852e-011 -3.30514e-010 -10.2786 0.731801 -0.0259123 -7.43974e-010 -1.24863e-011 -3.30519e-010 -2.22167 -0.733487 0.20892 -2.03217e-016 0 -3.88251e-019 1.26171 -16.0395 14.6986 -0.9899 59.6956 1.69328 -6.23133 -12.4277 -14.3133 2.03217e-016 0 3.88251e-019 0.829076 -46.031 -5.91906 0.422942 42.0886 -0.439098 1.59589 -10.0435 3.57769 
-11.7198 83.8268 29.4188 -20.2963 6.41709 101.578 9.33435 25.4199 1.4839 -4.03936 -4.32576 0.472025 1.23135 18.5468 3.14696 -11.7839 -49.4088 0.831374 -0 0 0 -0 0 0 -5.17584e-014 1.77912e-012 -2.31643e-013 56.8958 -14.9673 -25.6908 -27.5801 -28.5158 64.8786 -13.2205 -67.3834 -19.719 -1.50043e-009 8.76864e-009 -8.24391e-010 -2.53024e-009 1.51803e-008 -1.49431e-009 -1.50043e-009 8.76863e-009 -8.24395e-010 7.73091 5.47488 0.417314 -1.50044e-009 8.76863e-009 -8.24399e-010 2.90554 0.965183 0.102902 -1.50043e-009 8.76864e-009 -8.2439e-010 10.2786 0.731801 0.0259123 -1.50045e-009 8.76866e-009 -8.24394e-010 2.22167 -0.733487 -0.20892 -5.1613e-014 1.77912e-012 -2.31702e-013 -12.3133 -40.0247 84.2454 5.63662 -1.8832 -9.8379 13.1993 67.1886 -19.6631 -3.03585e-010 2.14031e-010 -5.70323e-011 -5.24057e-010 2.18284e-010 -8.7014e-011 -3.03587e-010 2.14036e-010 -5.70188e-011 -7.73091 5.47488 -0.417314 -3.03583e-010 2.14035e-010 -5.70327e-011 -2.90554 0.965183 -0.102902 -3.03584e-010 2.14036e-010 -5.70307e-011 -10.2786 0.731801 -0.0259123 -3.03582e-010 2.14034e-010 -5.70373e-011 -2.22167 -0.733487 0.20892 -2.03217e-016 0 -3.88251e-019 0.75023 -12.6563 15.6903 -0.606525 51.7086 1.38332 -5.58905 -13.9031 -12.4159 2.03217e-016 0 3.88251e-019 1.06433 -47.0708 -5.95448 0.433583 43.0572 -0.54671 1.67942 -10.6946 3.41992 
